<svg xmlns="http://www.w3.org/2000/svg" viewBox="0 0 708.07 695.46"><g id="レイヤー_2" data-name="レイヤー 2"><g id="レイヤー_3" data-name="レイヤー 3"><circle cx="354.63" cy="346.94" r="212.6" fill="#1a1a1a"/><path d="M258.42,24.88c2.1-1.33,3.15-2,5.25-3.3,1.79,7.16,2.79,10.86,5,18.47,1.53,5.25,5.12,8.7,11.34,5.22,4.24-2.37,8.38-8.55,6.45-14.56-2.57-8-3.75-11.95-5.88-19.53,2.06-1.24,3.09-1.86,5.15-3.08,4.84,16.43,10.43,32.58,16.28,48.68l-5.62,2.89c-3.18-8.74-4.67-13-7.43-21.31l-.13.07a19.41,19.41,0,0,1-9.22,12.14c-4.47,2.48-13.12,4.17-16.21-6.73C261.19,36,260.19,32.22,258.42,24.88Z"/><path d="M228.08,43l5.15-4.14C237.1,48,241.36,57,245.84,65.9l-5.36,4C236.07,61.09,231.88,52.08,228.08,43Zm17.68,30c2.08-1.53,4.2-1.24,5.1.51s.1,4.17-2,5.7-4.25,1.21-5.11-.48C242.78,76.82,243.68,74.53,245.76,73Z"/><path d="M201.09,93.57c.6-.46,1.19-.92,1.95-1.59,5.66-5,5.78-11.47,3.17-15.3-3.37-4.93-4.93-7.28-7.81-11.73l5.08-4.67c3.74,5.78,5.83,8.87,10.37,15.42,1.73,2.49,3.43,4.77,5.27,6.94l-4.56,4-3.5-4.42-.19.17c.57,4.29-1.44,9.65-5.67,13.38-.57.5-1.07.8-1.67,1.25C202.54,95.64,202.05,95,201.09,93.57Z"/><path d="M148.24,127.32c-7.39-5.82-2-16.39,5.16-23.87,8.27-8.67,18.09-12.8,24.17-7.54,7.28,6.31,2.29,20-3.89,25C167.22,126.09,156.92,134.16,148.24,127.32Zm23-8.78c6.93-7.32,5.24-14.15,1.44-17.28-4.38-3.6-11.52-2-17.3,4s-6.72,13-2.24,16.68C156.7,124.87,164.27,125.93,171.27,118.54Z"/><path d="M92.17,167.93l5.44-6.53c8.71-3.19,13.13-4.72,22.11-7.69,0-1.72,0-2.58,0-4.28-3.87-1.45-5.75-2.13-9.38-3.34l4.45-5.36c13.08,4.37,25.67,9.83,38.25,15.44l-4.25,5.58c-10.81-5-15.91-7.2-25.42-10.91l-.11.13a41.93,41.93,0,0,1,.41,4.22c.26,5.77.46,8.71,1,14.74l-5.17,6.61c-.35-7.44-.43-11.07-.39-18.15Q105.56,162.91,92.17,167.93Z"/><path d="M70.89,191.43l3.87-5.36c9.95,1.42,20,3.41,29.72,5.78-1.47,2.25-2.2,3.38-3.67,5.62C91,195,80.91,193,70.89,191.43ZM108.27,196c1.41-2.19,3.84-3.33,5.74-2.84s2.34,2.45.95,4.65-3.85,3.31-5.7,2.82C107.17,200.09,106.87,198.19,108.27,196Z"/><path d="M19.83,270.74c1-2.61,1.57-3.91,2.65-6.52,8.93-4.74,13.46-7.16,22.62-12.08l-2.39-3.3c-5.57,0-8.3,0-13.7.19.95-2.12,1.43-3.17,2.39-5.29,17.87-.5,35.66-.37,53.52.21-.86,2.34-1.28,3.51-2.12,5.85-11.64-.49-23.23-.81-34.89-1l0,.13a33.13,33.13,0,0,1,2.8,3.18c3.44,4.45,5.24,6.75,9,11.51-1,2.75-1.47,4.12-2.43,6.88-4.31-6.05-6.36-9-10.23-14.56Q33.44,263.41,19.83,270.74Z"/><path d="M14,312.86a59,59,0,0,0-9.12.95c.24-2,.36-2.94.62-4.88l4.92-.8,0-.2c-2.75-1.64-4.94-5-4.13-9.92,1.09-6.6,7-10.61,12.48-11.17,9.1-.92,12.76,6.15,11,19.77,3.3-.17,10.77-.55,11.9-9a13.55,13.55,0,0,0-1.52-8.85L44.59,287c1.64,2.83,2.28,6.94,1.74,11.15-1.36,10.63-9.54,13.72-17.3,14C23,312.47,20,312.59,14,312.86Zm11.48-6c.84-6.88,1.07-15.34-6.95-14.63-4.89.44-7.5,3.45-8,6.66-.82,5.2,3,8.63,7.66,8.37Z"/><path d="M45.78,333.39c1.06,2.18,1.59,3.27,2.68,5.47l-9.34,1.28c.44,3.92.68,5.9,1.2,9.85l-4.73.56c-.53-3.91-.77-5.88-1.21-9.77-9.15,1.24-13.65,1.83-22.49,3-4.85.63-7.32,2.33-6.85,5.8a10.29,10.29,0,0,0,1.07,3.6l-4.37.8a12.81,12.81,0,0,1-1.63-5.14c-1.15-8.55,7.23-9.93,11.3-10.5,8.8-1.23,13.27-1.87,22.36-3.18-.23-2.31-.34-3.46-.54-5.75l4.73-.73c.21,2.31.32,3.47.55,5.79Z"/><path d="M31.43,403.1C21,405,10,399.92,5.78,390.14c-3.71-8.65.72-16.88,12.37-19.82,10.48-2.64,21.9,1.75,25.77,12.32C47.62,392.73,42.42,401.1,31.43,403.1Zm8-19.65c-2.94-7.94-12-9.27-19.05-7.65-8.1,1.86-12.86,7.45-10.32,13.67s10.76,9.62,18.9,8.08C35.34,396.33,42.34,391.46,39.38,383.45Z"/><path d="M62.84,467.47c-2-8.89-2.82-13.41-4.33-22.55,6.95,8.31,10.49,12.52,17.64,21,8.71-1,13.18-1.64,22.34-3-4.67,6.9-6.87,10.21-11,16.54l18.26,21.64c-9.83-4.8-14.71-7.2-24.36-12-3.72,6-5.43,8.78-8.51,14.1-2.79-8.54-4.08-12.88-6.46-21.68-9.64-5-14.41-7.49-23.84-12.4C50.46,468.67,54.51,468.34,62.84,467.47Z"/><path d="M144.3,562.38c-2.3,4.75-3.35,7-5.24,11.4l-6.12-5.09c5.33-12.27,11.54-24.07,17.88-35.85l6.3,4.9c-3.8,6.89-5.56,10.19-8.78,16.5,4.49-1.17,9.35.14,14.38,4.14,3.81,3,6.42,6.15,7.63,9.27a12.28,12.28,0,0,1-.89,10.2c-3.24,6.4-4.71,9.45-7.3,15.21L156.08,588c2.27-5.08,3.54-7.76,6.32-13.35,1.64-3.3,2.15-5.94,1.39-7.76a15,15,0,0,0-4.68-5.82,13,13,0,0,0-8.21-3.23C148.18,557.87,145.8,559.28,144.3,562.38Z"/><path d="M197.73,589.34c-2.87,9.51-5.4,19.27-7.37,29l-6.16-4.45c1.87-9.67,4.31-19.37,7.1-28.8ZM195,573.06c2.61,1.68,3.91,2.52,6.52,4.18-.68,2.11-1,3.15-1.66,5.22l-6.48-4.21C194,576.19,194.3,575.16,195,573.06Z"/><path d="M220.56,625.48c-.77,6.38-1.08,9.5-1.56,15.58-2.46-1.49-3.68-2.24-6.14-3.75.69-10.8,2.09-21.48,3.55-32.19,2.6,1.42,3.9,2.13,6.5,3.53-.38,2.42-.56,3.63-.91,6a11.28,11.28,0,0,1,5.9-2.28,11.72,11.72,0,0,1,6.52,1.6,36.72,36.72,0,0,1,3.43,2.34c-.42,2.36-.63,3.53-1,5.86a16.26,16.26,0,0,0-4.67-3.56c-2.69-1.44-5.35-1.81-7.42-.91C222.52,618.68,221.05,621.47,220.56,625.48Z"/><path d="M282,676.28c-2.94-1.07-4.42-1.62-7.36-2.74q-7.92-12.4-15.93-24.75c0,7.55,0,11.25.21,18.5-2.53-1-3.8-1.58-6.33-2.66-.66-17.55-.5-35.06,0-52.61,2.8,1,4.19,1.43,7,2.36-.44,11.49-.73,22.92-.85,34.41,6.55-4.43,10-6.8,17.16-11.83,2.84.93,4.26,1.39,7.1,2.29-7,5-10.42,7.35-16.87,11.79Q274.08,663.63,282,676.28Z"/><path d="M306,648.42q.72,19.2,1.81,38.37c-2.43-.41-3.65-.63-6.08-1.08q-1.36-19.11-2.3-38.26C302.1,647.86,303.41,648.05,306,648.42Zm-7.26-16.33c2.69.39,4,.57,6.74.93.08,2.65.12,4,.21,6.6-2.67-.36-4-.55-6.67-1C298.94,636.05,298.89,634.74,298.78,632.09Z"/><path d="M393.27,687.56c-2.94.9-4.41,1.33-7.35,2.18-7.31-5.73-11.14-8.76-19.12-15.1,1.44,7.85,2.13,11.72,3.42,19.31-2.53.62-3.79.93-6.31,1.51q-5.21-27.62-11-55.08c2.8-.56,4.21-.84,7-1.44q3.62,17.82,6.91,35.7c5.21-8.73,7.91-13.2,13.48-22.31,2.84-.71,4.26-1.08,7.11-1.84-5.48,8.9-8.14,13.27-13.3,21.83C382.11,678.73,386,681.79,393.27,687.56Z"/><path d="M442.1,669.35c-2.49,1.45-3.74,2.17-6.23,3.59a12.88,12.88,0,0,1-1.76-3.93c-2.63,4.09-4.22,6.46-4.8,7.13a18.08,18.08,0,0,1-5.59,4.68c-3,1.64-5.54,2.09-7.8,1.36a6.67,6.67,0,0,1-4.48-4.9c-1-3.63-.13-7.1,2.51-10.35,3.13-3.87,8.45-8.6,16.08-13.95-.41-1.54-.62-2.31-1-3.87-.53-2-1.42-3-2.66-3.1-1.55-.51-3.82,0-6.79,1.49a12.39,12.39,0,0,0-5.3,4.38,6.84,6.84,0,0,0-.81,5.24c-2.69,1.35-4,2-6.7,3.34-.77-2.47-.13-5.47,2-9a22.87,22.87,0,0,1,9.77-8.58,24.67,24.67,0,0,1,8.63-2.65c2.32-.2,4.17.14,5.46,1.14,1,.78,2,2.88,2.88,6.26,1.39,5.3,2.05,7.91,3.27,13A31.76,31.76,0,0,0,442.1,669.35Zm-10.19-9.21c-.31-1.23-.47-1.84-.8-3.08-7.08,5.81-11.14,9.58-12.35,11.48a6.68,6.68,0,0,0-1.08,5.46,3,3,0,0,0,2.63,2.35,6.81,6.81,0,0,0,4.34-.77,15,15,0,0,0,6.05-6.5A12.21,12.21,0,0,0,431.91,660.14Z"/><path d="M485,638.64l1.48,3.73a47.6,47.6,0,0,1-6.11,5.76c-3.76,3-6.92,4-9.06,3.86-2.36-.19-4.61-1.73-6.17-5.27-2.5-5.68-3.84-8.61-6.71-14.65-2.42,1.77-3.63,2.64-6,4.39-.81-1.69-1.22-2.54-2.06-4.25l6.07-4.36c-1.36-2.82-2.06-4.24-3.5-7.13l5.9-4.19c1.41,2.88,2.1,4.29,3.44,7.09,4.18-3,6.27-4.54,10.48-7.61.79,1.68,1.18,2.52,1.94,4.18-4.18,3.08-6.27,4.61-10.42,7.64,2.55,5.43,3.75,8.07,6,13.2,1.44,3.29,3,4.76,4.39,4.89s3.25-.51,5.56-2.3A63.2,63.2,0,0,0,485,638.64Z"/><path d="M524.16,615.17c-4.62,4.39-9.14,7-13.31,7.86s-7.9-.12-10.73-3.7a13.86,13.86,0,0,1-2.55-12.57c1.2-4.75,4.19-9.39,9-13.87,4.69-4.34,9.37-6.8,13.94-7.46a11.25,11.25,0,0,1,11.08,4.37c2.67,3.41,3.19,7.33,1.72,11.92S528.78,610.78,524.16,615.17Zm-2-2.63a18.51,18.51,0,0,0,5.32-8.71,9.26,9.26,0,0,0-1.68-8.6,8.36,8.36,0,0,0-7.83-3.49,15.67,15.67,0,0,0-8.84,4.27,17.78,17.78,0,0,0-5.41,9,10.19,10.19,0,0,0,2.11,9,7.73,7.73,0,0,0,7.52,3.24A16.17,16.17,0,0,0,522.15,612.54Z"/><path d="M568.7,558.5c-9.55,5.33-14.35,8-24,13.19q9.18-11.13,18.4-22.22c-3.69-6.05-5.69-9.23-10-15.86,8.87,1,13.2,1.33,21.62,1.84q9.19-11.06,18.41-22.08c-2,9.19-3.1,13.72-5.45,22.62,8.11.22,12,.21,19.65,0-9.39,5.55-14.12,8.33-23.63,13.84-2.81,8.88-4.29,13.25-7.42,21.83C573.61,566.69,572.08,564.07,568.7,558.5Z"/><path d="M649.37,463.57c6.82.33,10.16.44,16.69.53-1.31,2.41-2,3.61-3.29,6-16.88,0-33.71-1.17-50.51-2.63l3-6.59c9.26,1,13.79,1.37,22.63,2-3.37-3.15-3.94-7.42-1.59-12.62a19.22,19.22,0,0,1,7.23-8.77c3.14-1.91,7.35-2.53,12.29-2,9.1.91,13.54,1.28,22.17,1.83-1.2,2.4-1.81,3.6-3,6-7.62-.38-11.52-.65-19.51-1.33-4.72-.4-8-.09-9.79,1a12.34,12.34,0,0,0-4.64,5.38c-1.41,3-1.21,5.56-.07,7.43C642.15,461.86,644.92,463.35,649.37,463.57Z"/><path d="M638.38,419.61c.68-2.65,1-4,1.65-6.63l6.55.1c-.66,2.63-1,3.94-1.67,6.56C642.31,419.64,641,419.63,638.38,419.61Zm16.92-6.44q19,.12,37.92-.37c-.72,2.4-1.1,3.6-1.86,6q-18.87.76-37.76.84C654.3,417.05,654.64,415.76,655.3,413.17Z"/><path d="M684.42,385.62c7.69-.57,11.48-.86,18.94-1.46-.26,2.4-.4,3.6-.69,6q-19.45,1.82-38.94,3.35c.26-2.58.38-3.88.61-6.47l7.13-.49a15.25,15.25,0,0,1-5.56-4.72,9.25,9.25,0,0,1-1.58-6.14,25.33,25.33,0,0,1,.78-3.57l6.88-.29a10.2,10.2,0,0,0-1.44,4.91,7.72,7.72,0,0,0,2.88,6.77C675.74,385.31,679.59,386,684.42,385.62Z"/><path d="M653.55,358.47c-.26-2.67-.39-4-.69-6.7l6.69-.84c.29,2.67.43,4,.69,6.64Zm14.92-8.63q19.44-2.37,38.89-4.56c.31,2.43.45,3.65.71,6.08q-19.47,2.43-38.91,5C668.9,353.77,668.76,352.46,668.47,349.84Z"/><path d="M697.05,292.85c1.17,2.88,1.74,4.32,2.87,7.2-5,7.27-7.68,11.08-13.33,19,7.76-1.56,11.56-2.3,19-3.68.87,2.47,1.3,3.7,2.13,6.16q-27.35,5.55-54.46,12c-.78-2.73-1.18-4.1-2-6.84q17.6-4,35.29-7.62c-9.21-4.93-13.92-7.48-23.48-12.72-1-2.77-1.44-4.16-2.43-6.94,9.33,5.16,13.93,7.68,23,12.56C689.34,304,692,300.14,697.05,292.85Z"/><path d="M644,287c-1.29-2.53-1.95-3.81-3.26-6.35,2.36-.74,3.54-1.11,5.87-1.82,1.33,2.52,2,3.78,3.29,6.3Zm10.41-10.51c11.12-3.18,22.2-6.17,33.42-9,1.41,2.34,2.11,3.51,3.48,5.84-11.27,2.92-22.41,6-33.58,9.34C656.45,280.18,655.78,278.94,654.44,276.45Z"/><path d="M631,185.26l6.32,7c.75,8.49,1,12.87,1.08,21.88,5.15-3,7.62-4.46,12.33-7.08l5.36,5.91c-12.53,7-24.69,14.65-36.81,22.35l-5.18-6.15c8-5.15,16.1-10.19,24.3-15-10-3.17-15.06-4.73-25.34-7.79l-5.54-6.43c10,3,14.88,4.54,24.57,7.67C632,198.38,631.74,193.91,631,185.26Z"/><path d="M588.1,138.17l6.08,5.76a6.66,6.66,0,0,1-1.37,3.06c4.21,1.65,6.69,2.72,7.48,3.17a28.66,28.66,0,0,1,6.49,4.77,22.36,22.36,0,0,1,5.87,8c1,2.58.86,4.54-.37,5.92-1.78,2-4.69,1.95-8.56.07-4.52-2.19-11-6.4-19.06-12.79-.81.91-1.23,1.36-2.06,2.28a3.4,3.4,0,0,0-.65,3.72,19.27,19.27,0,0,0,4.9,6.54c2.28,2.14,4.41,3.65,6.16,4.13s3.42.21,4.2-.65l6.32,5.91c-1.3,1.44-3.84,1.61-7.62.48s-7.71-3.58-11.77-7.39a40.22,40.22,0,0,1-6.72-8,12.47,12.47,0,0,1-2.24-6c0-1.3.92-3,2.73-5,2.84-3.15,4.19-4.66,6.78-7.55A15.25,15.25,0,0,0,588.1,138.17Zm.28,13.79-1.59,1.76q12.08,8.61,15.09,9.72c2,.74,3.47.63,4.31-.32s.54-2.05-.1-3.39a15,15,0,0,0-3.22-4.41,19.36,19.36,0,0,0-7.93-4.68C592.08,149.83,589.91,150.25,588.38,152Z"/><path d="M544.39,100.59c.57-1.33.85-2,1.39-3.29a52.38,52.38,0,0,1,6.84,4.83,27.09,27.09,0,0,1,7.53,9,10.6,10.6,0,0,1,.32,9c-2.13,4.86-3.31,7.4-5.86,12.69l6.24,4.93c-.7,1.46-1.06,2.2-1.79,3.69l-6.26-4.92c-1.23,2.47-1.86,3.73-3.17,6.28l-6-4.68c1.32-2.57,2-3.83,3.19-6.31l-10.66-8.39c.76-1.52,1.14-2.27,1.87-3.76l10.63,8.43c2.33-4.79,3.41-7.11,5.4-11.57,1.28-2.85,1.3-5.14.56-6.84a15.66,15.66,0,0,0-4.53-5.52A59.5,59.5,0,0,0,544.39,100.59Z"/><path d="M509.75,64.61A38.94,38.94,0,0,1,521.23,77c2.79,4.77,4.06,9.55,3.23,14.44s-3.2,7.75-7,8.48S509,99.35,503.64,96a31.07,31.07,0,0,1-11.53-12.13,21.81,21.81,0,0,1-2-15c1.09-4.94,3.38-7.72,6.94-8.42S504.82,61.2,509.75,64.61Zm-.58,3.85c-2.91-2-5.59-2.58-8-2s-4,2.69-4.78,6.45a16.2,16.2,0,0,0,1.23,10.79,19.34,19.34,0,0,0,7,8c3.2,2,6.16,2.59,8.66,2s4.17-2.73,4.85-6.53a15.9,15.9,0,0,0-1.73-10.42A22.49,22.49,0,0,0,509.17,68.46Z"/><path d="M422.91,28.05,442.5,46.49c-9.22-2.29-13.86-3.33-23.21-5.21-2.52,8.57-3.89,13-6.81,22-3.26-10-4.87-15-8-24.71-9.42-1.6-14.15-2.29-23.67-3.45,7.77-4.9,11.54-7.24,18.79-11.65C396.52,13.9,395,9.21,392.12,0c7.27,6.6,11,10,18.6,17,7.12-3.93,10.54-5.75,17.09-9.09C426.06,15.7,425.08,19.75,422.91,28.05Z"/><path d="M204.79,242.37q-14.44,8-28.83,16.19a243.27,243.27,0,0,0-8.5,39.15c-1,7.26-.26,13.54,2.42,13.7,1.46.09,1.9.72,1.76,3-.11,1.79-.77,3.38-1.86,3.81-1.68.67-7.32,1.19-9.54,2.08s-8,4.83-9.68,5.49c-1,.37-1.55-.65-1.46-2.34a5,5,0,0,1,2.24-4.39c2.83-2.37,4.48-9.46,5.45-16.51,5-29.78,14.06-56.18,29.48-82.17,3.49-5.49,5.94-9.38,4.24-8.2-1.08.75-1,.49.21-1a32.46,32.46,0,0,1,3.08-3.28c1.48-1.32,5.3-4.27,7.3-6s7.84-7.32,9.27-8.55c.93-.8.77-.29-.09,1a22.5,22.5,0,0,1-3.56,4.17,76,76,0,0,0-10.81,14.43,209.88,209.88,0,0,0-16.54,35.43q14.17-8.54,28.42-16.94a305.92,305.92,0,0,1,14.38-38.19c2.88-6.14,4.69-10.67,2.73-9.61-1.11.59-1.16.29-.18-1.37a15.59,15.59,0,0,1,2.9-3.58c1.44-1.21,5.63-3.86,7.59-5.45s7.75-7.16,9.2-8.32c.93-.76,1-.18.3,1.23a13.58,13.58,0,0,1-3.27,4.42c-3.18,3.24-6.68,9.21-9.38,15.51-12.18,30.17-19.43,60.86-23.57,93.09-.89,7.92-.15,14.83,2.69,15,1.63.08,2.13.74,2,3.17-.11,1.94-.91,3.7-2.08,4.18-1.8.73-7.87,1.34-10.26,2.32s-8.66,5.4-10.4,6.1c-1.14.47-1.76-.65-1.65-2.51a5.78,5.78,0,0,1,2.45-4.86c3.16-2.68,5-10.46,5.87-18.22C199,270.11,201.54,256.29,204.79,242.37Z" fill="#fff"/><path d="M256.62,183.54c1.83-7,2.48-12.57.3-11.95-1.35.37-1.51-.1-.86-2a8,8,0,0,1,2.45-3.75c1.6-1.1,6.33-2.89,8.48-4.3s7.86-6.57,9.38-7.54c1-.64,1.21.21.8,1.81a8,8,0,0,1-2.73,4.58c-3.08,3.11-5.71,9.8-7.34,17-7.34,34.25-11.28,68.62-13.06,103.59-.36,8.68.9,16.23,4,16.56,1.69.18,2.26,1,2.24,3.59,0,2.11-.69,3.95-1.93,4.42-1.91.72-8.44,1.1-11,2.07s-9.12,5.55-11.08,6.29c-1.11.42-1.85-.85-1.82-2.9,0-2.57.51-3.77,2.39-5.26,3.2-2.77,4.67-11.27,5.08-19.85C244,251.17,248.43,217.29,256.62,183.54Z" fill="#fff"/><path d="M302.6,249.32q-.19,17.32-.13,34.64c.07,9.17,1.68,17.17,5,17.64,1.78.25,2.42,1.08,2.49,3.85.06,2.21-.59,4.12-1.89,4.57-2,.7-8.89.91-11.56,1.85s-9.5,5.61-11.56,6.34c-1.17.42-2-.95-2-3.13-.05-2.74.42-4,2.36-5.53,3.31-2.84,4.55-11.81,4.54-20.93.16-36.78,1.71-73.36,5.53-110,.86-7.69.5-13.56-2-13.5-1.45,0-1.77-.66-1.47-2.59s1.16-3.56,2.11-4.08c1.68-.9,6.91-1.89,9.14-3,6.78-3.48,14.08-9,18.53-10.92,14.69-6.2,16,21.74,16.11,29.08.21,17.62-3.09,40.85-15.62,55.93-.76,1-1.52,1.84-2.18,2.6,1.79.86,4.68,3.8,7.86,15.33,3.27,11.73,8.41,37.3,19.14,39.15.78.13,1.68,1.11,1.78,3.32.15,3.59-1.87,7.07-7.53,9S328,301,323.47,285.2c-4-14.56-6-32.83-13.71-46.08a44.35,44.35,0,0,1-5.12,2C303,241.73,302.68,244.39,302.6,249.32Zm.7-26.45c-.2,5.48.32,6.79,2.37,6,4.77-1.9,7-3.08,10.89-7.78,8.16-9.93,9.73-29.27,9.65-42.46,0-8.13.55-26.42-10.74-22.54-5.81,2-8.33,7.5-8.84,13.12Q304.38,196,303.3,222.87Z" fill="#fff"/><path d="M389.36,144.33c25.69-4.71,39.74,55,42.85,71.29,4.93,25.87,10.35,83.4-23.56,95.31-34.1,12-41.23-60.72-42.31-78.34C365.16,213.56,362.34,149.28,389.36,144.33Zm18.33,153.12c21-6.05,15.1-62.37,12.28-79.83-2.18-13.56-14.86-66.39-29-63.39-15.3,3.25-12.35,57-11,73.71C381.11,241.1,388.28,303,407.69,297.45Z" fill="#fff"/><path d="M475.57,239.79c-.38-.16-1.41,4.81-1.72,7.81,3.07,13.71,5.5,27.5,7.7,41.38,1.25,8.46,3.42,16,6.54,16.68,1.63.38,2.29,1.19,2.59,3.7.23,2-.21,3.68-1.35,4-1.74.49-8.93.46-11.34,1.17s-7.63,4.4-9.55,5c-1.09.33-1.95-1-2.14-3.13-.23-2.62.13-3.81,1.86-5.12,2.92-2.46,3.33-10.82,2.2-19.48A724.55,724.55,0,0,0,447.7,186.54c-2.27-7.43-5.42-14.08-8-15.18-1.47-.62-2.12-1.44-2.8-3.56-.54-1.7-.43-3,.34-3,1.35,0,5.74,1.87,7.47,1.93s5.69-1.45,6.85-1.33c.76.08,1.67,1.32,2.35,2.91.84,2,.88,2.77,0,3.3-1.54,1.26,0,7.41,2.51,14.64,5.43,15.68,10.26,31.6,14.24,47.71A132.56,132.56,0,0,0,470,187.8c-1.24-6.31-2.41-9.71-3.44-11.85s-1.87-3-3.34-3.77a6.81,6.81,0,0,1-2.07-2.84c-.65-1.35-.84-2.26-.25-2.14.91.19,4,1.23,5.49,1.64,3.42.94,3.91.61,5.1,1.06.62.23,1.33.91,2.64,3,1.09,1.79,1.59,2.82,1,3.22-1,.64-1.37,1.38-.17,8.87,1.77,11.11.33,24.88,2.75,33.59,5.23,18.81,23.11,42.78,34,64.51,4.7,8.72,7.66,13.21,10.68,14.15,1.85.57,2.23.95,2.64,3.24.5,2.75-.1,3.61-1.06,3.83-2.07.48-4.52.07-10.1,1.45-2.29.56-10.25,3.12-11.69,3.5-.93.25-1.51-.86-1.73-2.58s-.1-3.27.79-3.75c1.66-1.18,2.19-2.31,1.77-5s-2-6.77-5.28-14C491.18,269.25,482.37,242.74,475.57,239.79Z" fill="#fff"/><path d="M508.22,208.65C504.38,202.6,500,197,497.71,195.3a11.81,11.81,0,0,1-3.17-3.45c-.94-1.39-1.29-2.25-.75-2,.95.45,5.07,3.52,6.25,4.21s2.68,1.08,3.44,1.66a26.38,26.38,0,0,1,2.67,2.74c1.36,1.55,1.71,2,1.35,2-.47.19,2.82,4.77,6.94,10.53a302.49,302.49,0,0,1,40.18,83.28c1.93,7,4.31,13.19,7,14,1.4.41,2,1.11,2.47,3.16.35,1.63.09,3-.85,3.16-1.45.31-6.83-.27-8.85.19s-7.07,3.47-8.69,3.88c-.93.23-1.75-1-2-2.72-.35-2.22-.11-3.2,1.3-4.21,2.37-1.91,2.15-8.82.39-16.05A327.72,327.72,0,0,0,508.22,208.65Z" fill="#fff"/><path d="M215.88,462.08c-.36-.17-.79,4.18-.65,6.73q6.56,17.67,14.75,34.66c3.21,6.65,6.93,12.57,9.48,14.19a7.72,7.72,0,0,1,2.94,3.51c.78,1.52,1,2.57.32,2.4-1-.27-5.87-2.9-7.19-3.35s-3.25-.15-4.19-.58a9.78,9.78,0,0,1-2.53-2.84c-1.15-1.74-1.38-2.34-.77-2.5.94-.44-1.71-5.83-5.2-12.22a410.49,410.49,0,0,1-34.9-92c-1.77-7.65-4.26-14.64-7.1-15.33-1.62-.39-2.26-1.17-2.67-3.43-.34-1.81.05-3.31,1-3.53,1.66-.37,6.69.61,9,.07s8.35-4.29,10-4.73c1.08-.28,1.85,1,2.12,2.94.34,2.42.06,3.48-1.39,4.58-2.63,2.38-2.51,9.69-.9,17.59a407.8,407.8,0,0,0,12.89,48.12c1.21-16.89,2.71-33.83,4.27-50.53.76-8.14,1.07-13,.71-15.69s-1.26-3.64-3.14-3.78c-.84-.06-1.42-1.41-1.63-3.14s.08-3.1,1-3.36c1.47-.41,6.3-1.26,8.85-2,5.88-1.7,7.6-3.28,9.84-3.95,1.17-.35,1.95.21,2.24,3.31.24,2.59.16,4.19-1.63,5.78-2.92,2.6-4.89,4.93-7.5,16.14-3.13,13.48-8.51,31.25-6.11,42.06,4.16,18.81,22.84,43.34,35.12,64.27,5.24,8.52,8.47,13,11.22,14.38,1.68.84,2.05,1.25,2.76,3.36.85,2.53.5,3.15-.26,3.14-1.65,0-3.8-.83-7.9-1.11-1.69-.11-7.09-.33-8-.47-.62-.09-1.35-1.11-2-2.48s-.93-2.52-.38-2.65c.95-.44,1.09-1.2.16-3.42s-3.1-5.92-7.18-12.6C233,489.87,223.41,465.62,215.88,462.08Z" fill="#fff"/><path d="M292.46,390c10,43,22,85.6,34.45,127.94,2.35,8.11,4.35,14.73,7.24,15.49,1.79.47,2.12.83,2.35,3.1.26,2.72-.38,3.59-1.7,3.94-1.63.44-6.22.74-11.23,1.88-2.17.5-4.9,1.53-6.13,1.78-.8.16-1.35-.86-1.62-2.41s-.15-2.74.59-3.33,2-2.39,1.4-5.4c-1.75-9-4.93-18.43-7.62-27.57-8.58,2-12.74,2.8-20.74,4.11,1.1,11.73,2.45,20.79,3.3,24.27,1.23,5,2.84,7.35,4.36,7.72.69.17,1.39,1.39,1.75,2.88s.22,2.6-.51,2.67c-1.13.12-3.08-.13-5,0-4.34.31-5.23,1.12-6.84,1.14-.8,0-1.49-.59-2.28-3.05-.66-2-.53-2.45.54-3.34,1.71-1.43,1.4-5.55.63-13.29-4.52-45.34-3.29-90.74.05-136.12.44-5.42.8-8.62,2.92-9.28S291.32,385.3,292.46,390Zm-3.92,106.89c7-1.31,10.66-2.08,18.09-3.82-5.62-19.53-11-39.13-16.82-58.61-.45-1.5-.72-2.23-1.18-2.11s-.67,1.53-.7,2.87A568.94,568.94,0,0,0,288.54,496.88Z" fill="#fff"/><path d="M367,412.51c-.32-8.76-2.31-9.62-4.41-8.56-9.49,4.81-11.43,23.44-13.39,34.67-.51,3.68-.74,6.71-2,7.11-.68.21-1.53-1.23-1.61-4.08-.34-12,.71-24.69.12-37-.3-6.32.52-10,2.64-10.71s17.33-2.56,24.41-5,21.85-10.59,23.85-11.29c2.2-.76,3.16,2.34,3.36,8.65.39,11.84,2.24,24.1,2.61,35.68.09,2.85-.67,4.78-1.35,5-1.27.47-1.66-2.3-2.37-5.53-2.61-9.25-7.09-25.26-15.25-24.73-2,.13-4,2.52-3.71,11.28,1,38.76,1.42,77.5.63,116.27-.19,7.84.79,14.26,3.4,14.41,1.41.09,1.86.71,1.74,2.91-.1,1.76-.74,3.32-1.77,3.78-1.59.7-7,1.3-9.12,2.19s-7.64,4.79-9.27,5.41c-.94.36-1.57-.71-1.6-2.46,0-2.19.35-3.22,1.94-4.48,2.7-2.35,3.86-9.69,3.83-17.51C369.45,489.91,368.41,451.21,367,412.51Z" fill="#fff"/><path d="M457.45,382.31c32.52-12.53,30.64,51.7,28,66.82-5.22,30.3-22,68.45-47.81,88.23-23.81,18.25-19.4-48.85-18.87-56.22C420.88,452.37,425.33,394.68,457.45,382.31Zm-17,145.3c19.58-11.25,28.81-50.18,32.2-72.41,1.52-10,2.89-67.77-15.27-61.11-19.7,7.23-23.26,59.29-25.24,80.58C431.74,478.54,427.07,535.28,440.41,527.61Z" fill="#fff"/><text transform="translate(602.85 650.77) scale(1.09 1)" opacity="0.34" font-size="31.63" font-family="BodoniOrnamentsITCTT, Bodoni Ornaments">e</text></g></g></svg>